<svg xmlns="http://www.w3.org/2000/svg" width="43.485" height="48.331" viewBox="0 0 43.485 48.331"><defs><style>.a{opacity:0.7;}.b{fill:#fff;}</style></defs><g class="a" transform="translate(-5 -1.982)"><path class="b" d="M6.611,46.287V10.855A2.416,2.416,0,0,1,9.026,8.439h2.416v1.611h-.805A1.611,1.611,0,0,0,9.026,11.66V45.481a1.611,1.611,0,0,0,1.611,1.611H29.952V45.481H10.637V11.66h.805a2.416,2.416,0,0,0,2.416,2.416H31.574A2.416,2.416,0,0,0,33.99,11.66H34.8V25.309h1.611V11.66A1.611,1.611,0,0,0,34.8,10.049H33.99V8.439h2.416a2.416,2.416,0,0,1,2.416,2.416V25.309h1.611V10.855a4.031,4.031,0,0,0-4.026-4.026H33.99a.805.805,0,0,0-.805-.805H24.5a2.416,2.416,0,1,0-3.575,0H12.247a.805.805,0,0,0-.805.805H9.026A4.031,4.031,0,0,0,5,10.855V46.287a4.031,4.031,0,0,0,4.026,4.026H36.406V48.7H9.026A2.416,2.416,0,0,1,6.611,46.287ZM22.716,3.607a.805.805,0,1,1-.805.805A.805.805,0,0,1,22.716,3.607ZM13.053,7.633H32.379V11.66a.805.805,0,0,1-.805.805H13.858a.805.805,0,0,1-.805-.805Z" transform="translate(0 0)"/><path class="b" d="M43.469,33A10.469,10.469,0,1,0,53.937,43.469,10.469,10.469,0,0,0,43.469,33Zm0,19.327a8.858,8.858,0,1,1,8.858-8.858,8.858,8.858,0,0,1-8.858,8.858Z" transform="translate(-5.452 -6.04)"/><path class="b" d="M49.274,39H39.611A1.611,1.611,0,0,0,38,40.611v8.053a1.611,1.611,0,0,0,1.611,1.611h9.663a1.611,1.611,0,0,0,1.611-1.611V40.611A1.611,1.611,0,0,0,49.274,39Zm0,3.221H46.858V40.611h2.416Zm-4.026-1.611v3.221H43.637V40.611Zm-3.221,0v1.611H39.611V40.611Zm-2.416,8.053V43.832h2.416v.805a.805.805,0,0,0,.805.805h3.221a.805.805,0,0,0,.805-.805v-.805h2.416v4.832Z" transform="translate(-6.426 -7.208)"/><path class="b" d="M24.053,25.832H22.442v1.611H17.611V22.611h4.026V21H16.805a.805.805,0,0,0-.805.805v6.442a.805.805,0,0,0,.805.805h6.442a.805.805,0,0,0,.805-.805Z" transform="translate(-2.142 -3.703)"/><path class="b" d="M23.247,35H16.805a.805.805,0,0,0-.805.805v6.442a.805.805,0,0,0,.805.805h6.442a.805.805,0,0,0,.805-.805V35.805A.805.805,0,0,0,23.247,35Zm-.805,6.442H17.611V36.611h4.832Z" transform="translate(-2.142 -6.429)"/><path class="b" d="M24.735,21.293,21.278,24.75,19.432,22.9l-1.139,1.139,2.416,2.416a.805.805,0,0,0,1.139,0l4.026-4.026Z" transform="translate(-2.588 -3.76)"/><rect class="b" width="6.442" height="1.611" transform="translate(25.132 22.934)"/><rect class="b" width="6.442" height="1.611" transform="translate(25.132 19.713)"/></g></svg>