<svg xmlns="http://www.w3.org/2000/svg" xmlns:xlink="http://www.w3.org/1999/xlink" width="377.657" height="438.239" viewBox="0 0 377.657 438.239"><defs><style>.a{fill:#7cc142;}.b{fill:none;}.c{fill:#64bae8;}.d{fill:#119fda;}.e{opacity:0.3;mix-blend-mode:multiply;isolation:isolate;fill:url(#a);}.f{fill:#07456b;}.g{fill:#22445d;}.h{fill:#162e41;}.i{fill:url(#b);}.j{fill:url(#c);}.k{fill:url(#d);}.l{fill:#fff;}.m{fill:#24394a;}.n{fill:#0d2333;}.o{fill:#20689f;}.p{fill:url(#e);}</style><linearGradient id="a" x1="0.214" y1="15.436" x2="0.786" y2="16.323" gradientUnits="objectBoundingBox"><stop offset="0" stop-color="#fff"/><stop offset="1" stop-color="#1c1c1b"/></linearGradient><linearGradient id="b" x1="0.214" y1="17.435" x2="0.786" y2="18.323" gradientUnits="objectBoundingBox"><stop offset="0" stop-color="#0d2333"/><stop offset="0.141" stop-color="#0d2333"/><stop offset="1" stop-color="#0d2333"/></linearGradient><linearGradient id="c" x1="0.513" y1="12605299" x2="0.513" y2="12587823" xlink:href="#b"/><linearGradient id="d" x1="0.501" y1="15.909" x2="0.501" y2="14.328" xlink:href="#b"/><linearGradient id="e" y1="-15.364" x2="1" y2="-15.364" gradientUnits="objectBoundingBox"><stop offset="0" stop-color="#7cc142"/><stop offset="1" stop-color="#7cc142"/></linearGradient></defs><g transform="translate(157.676 7.077)"><g transform="translate(-157.676 -7.077)"><path class="a" d="M542.419,593.7H475.534l0,0,33.442,43.159h.008l33.443-43.159Z" transform="translate(-164.767 -308.184)"/><path class="b" d="M-94.535,453.755h-84.884l0,.006h0l0-.006h84.884l0,.006,42.442,54.773h0L-94.53,453.761Z" transform="translate(179.429 -234.639)"/><path class="b" d="M-136.981,277.63h0l-42.442-54.774,0,0h84.885l0,0,0,0H-9.642l0,0,0,0H-94.527l0,0,0,0H-179.42l0,0Z" transform="translate(179.429 -113.293)"/><path class="b" d="M-136.982,508.541l-42.441-54.773h0Z" transform="translate(179.429 -234.646)"/><path class="b" d="M382.325,608.691l30.59-39.478,0-.006,0,.006Z" transform="translate(-115.785 -295.313)"/><path class="b" d="M267.842,800.119l.005-.007h-.011Z" transform="translate(-55.618 -416.659)"/><path class="b" d="M348.687,673.511l-7.8-10.065,7.8,10.065Z" transform="translate(-94.008 -344.837)"/><path class="a" d="M88.956,569.213,131.4,623.986h.01l42.441-54.773h0l0-.006H88.961Z" transform="translate(38.388 -295.313)"/><path class="c" d="M267.862,739.444l0,0h84.879l-42.434-54.764-.007-.009Z" transform="translate(-55.631 -355.993)"/><path class="d" d="M-89.96,338.3l0,.005,42.442,54.774h.009l42.442-54.774,0-.005H-89.96Z" transform="translate(132.415 -173.966)"/><path class="e" d="M267.861,800.119l-.005-.007h0l-.005.007,42.441,54.772h.011l42.441-54.772-.005-.007H267.867Z" transform="translate(-55.624 -416.659)"/><path class="c" d="M84.39,393.088,41.948,338.314-.494,393.088Z" transform="translate(85.397 -173.972)"/><path class="a" d="M-.5,453.761l42.442,54.773h.01l42.441-54.773,0-.006H-.5Z" transform="translate(85.402 -234.639)"/><path class="a" d="M41.947,107.408-.5,162.183H84.389Z" transform="translate(85.398 -52.625)"/><path class="a" d="M-47.513-8.045-89.956,46.73H-5.07Z" transform="translate(132.412 8.049)"/><path class="f" d="M-5.075,569.207H-89.959l0,.006h0l42.441,54.773h.01l42.441-54.773,0-.006Z" transform="translate(132.415 -295.313)"/><path class="f" d="M-94.535,453.756h-84.884l0,.006,42.441,54.773h84.893L-94.53,453.761Z" transform="translate(179.429 -234.64)"/><path class="g" d="M-94.53,393.088l-42.442-54.774-42.442,54.774Z" transform="translate(179.424 -173.972)"/><path class="h" d="M-179.413,623.993H-94.53l-42.441-54.773Z" transform="translate(179.423 -295.32)"/><path class="i" d="M-179.418,684.659h0l0,.006h0l42.441,54.773h.011l42.441-54.773-.005-.007h-84.883Z" transform="translate(179.429 -355.986)"/><rect class="g" transform="translate(42.452 273.901)"/><rect class="j" transform="translate(42.452 273.901)"/><rect class="h" height="69.292" transform="translate(21.231 266.641)"/><rect class="k" height="69.292" transform="translate(21.231 266.641)"/><rect class="l" transform="translate(0.006 328.68)"/><rect class="l" transform="translate(0.006 328.68)"/><rect class="l" transform="translate(0.011 328.673)"/><rect class="l" transform="translate(0.011 328.673)"/><path class="g" d="M41.942,800.145-.492,854.908H84.376Z" transform="translate(85.396 -416.676)"/><path class="f" d="M-179.42,222.852l0,0,42.442,54.774h0l0,.005,0-.005h84.885L-94.53,222.856l0,0Z" transform="translate(179.429 -113.293)"/><path class="h" d="M-136.973,107.408l-42.443,54.775H-94.53Z" transform="translate(179.425 -52.625)"/><path class="m" d="M88.935,800.127l42.434,54.763h84.893l-42.441-54.772-.005-.007H88.947l-.005.007-.005-.007h0l-.005.007Z" transform="translate(38.403 -416.659)"/><path class="a" d="M173.847,739.446h0l0,0-42.44-54.771L88.968,739.446h84.879Z" transform="translate(38.382 -355.993)"/><path class="h" d="M131.4,162.178h.008L173.849,107.4l0,0H88.96l0,0Z" transform="translate(38.388 -52.62)"/><path class="d" d="M369.2,608.7l-11.851,15.295h84.882L399.788,569.22Z" transform="translate(-102.658 -295.319)"/><path class="d" d="M164.721,508.547l0-.006-42.441-54.773L79.833,508.541l0,0,0,0h-.01l0,.006h0l34.642,44.707,7.8,10.065H37.377L-5.065,508.547l-42.441,54.773h-.01l.005.007L-89.952,618.1H-5.07l.005.007.005-.007,42.441-54.773L79.821,618.1l42.44-54.771.007.009.007-.009,0-.006h0l11.851-15.295Z" transform="translate(132.409 -234.646)"/><path class="f" d="M220.858,508.534h.01l42.442-54.773,0-.006H178.421l0,.006Z" transform="translate(-8.625 -234.639)"/><path class="n" d="M267.876,800.112h-.011l.005.007Z" transform="translate(-55.633 -416.659)"/><path class="n" d="M-.5,453.755H-.513l0,.006Z" transform="translate(85.407 -234.639)"/><path class="n" d="M88.946,569.207l0,.006,0-.006Z" transform="translate(38.394 -295.313)"/><path class="n" d="M-89.969,800.119l.005-.007h-.011Z" transform="translate(132.421 -416.659)"/><path class="n" d="M-.5,915.564H-.515l.006.008Z" transform="translate(85.408 -477.332)"/><path class="n" d="M-179.434,684.659l.005.007h0l0-.006h-.01Z" transform="translate(179.435 -355.986)"/><path class="n" d="M-89.964,107.4h-.007l0,0Z" transform="translate(132.419 -52.62)"/><path class="n" d="M-179.424,915.564h-.011l.006.008Z" transform="translate(179.435 -477.332)"/><path class="d" d="M334.016,299.615h0l-14.747-19.032-14.747,19.032Z" transform="translate(-74.897 -143.633)"/><path class="d" d="M211.015,49.794h0L187.857,19.906,164.7,49.794Z" transform="translate(-1.416 -6.64)"/><path class="n" d="M-89.969,569.213h0l0-.006h-.01Z" transform="translate(132.421 -295.313)"/><path class="n" d="M267.876,107.4h-.007l0,0Z" transform="translate(-55.635 -52.62)"/><path class="n" d="M-.5,222.851H-.511l0,0Z" transform="translate(85.406 -113.293)"/><path class="n" d="M446.8,800.112h-.011l.005.007Z" transform="translate(-149.66 -416.659)"/><path class="n" d="M536.25,684.666l0-.007h-.01Z" transform="translate(-196.674 -355.986)"/><path class="n" d="M-.51-8.053l0,0,0,0Z" transform="translate(85.405 8.053)"/><path class="n" d="M446.8,569.207h-.009l0,.006Z" transform="translate(-149.661 -295.313)"/><path class="n" d="M88.956,107.4h-.007l0,0Z" transform="translate(38.392 -52.62)"/><path class="n" d="M357.335,453.755h-.009l0,.006Z" transform="translate(-102.647 -234.639)"/><path class="f" d="M173.84,338.3H88.948l0,.005,42.442,54.774,0,.006,0-.006,42.442-54.774,0-.005h-.008Z" transform="translate(38.393 -173.966)"/><g transform="translate(84.898 109.558)"><path class="b" d="M267.867,338.3h0Z" transform="translate(-140.532 -283.524)"/><path class="o" d="M-.5,222.852l0,0L41.939,277.63l42.446-54.779Z" transform="translate(0.503 -222.852)"/><path class="a" d="M131.394,222.852,88.948,277.63H173.86Z" transform="translate(-46.505 -222.852)"/></g><path class="f" d="M41.914,739.445h.011l42.434-54.763-.007-.009.005-.007H-.522l-.005.007Z" transform="translate(85.414 -355.99)"/><path class="f" d="M220.875,739.445h.011l42.434-54.763-.007-.009.005-.007H178.44l-.005.007Z" transform="translate(-8.635 -355.99)"/><path class="o" d="M131.412,162.181h0l42.456-54.761-.007-.009.005-.007H88.987l-.005.007Z" transform="translate(38.375 -52.622)"/><path class="p" d="M340.929,584.508l11.851-15.295H267.9l42.441,54.773Z" transform="translate(-55.65 -295.316)"/><path class="a" d="M267.186,325.553,241.71,358.432l0,0h50.958Z" transform="translate(-41.886 -167.266)"/></g></g></svg>