<svg xmlns="http://www.w3.org/2000/svg" width="252.36" height="102.836" viewBox="0 0 252.36 102.836"><defs><style>.a{fill:#64bae8;}.b{fill:#7cc142;}.c{fill:#07456b;}.d{fill:#20689f;}.e{fill:#119fda;}</style></defs><g transform="translate(1444.355 -1300.259)"><path class="a" d="M-1444.355,1325.851c.33.043.538-.207.78-.346q7.919-4.551,15.827-9.12,6.892-3.977,13.783-7.957,6.438-3.714,12.879-7.423c.364-.21.743-.4,1.088-.635a.522.522,0,0,1,.645,0q4,2.32,8,4.623l15.427,8.9q10.223,5.9,20.445,11.8c.107.062.2.142.305.214-.123.275-.419.314-.639.443q-3.114,1.819-6.244,3.613-3.433,1.979-6.869,3.955l-5.271,3.032q-3.969-2.282-7.939-4.564-7.807-4.5-15.609-9.007c-.5-.287-1-.56-1.487-.869a.78.78,0,0,0-.923-.014c-2.794,1.629-5.6,3.24-8.4,4.856l-12.3,7.091c-1.346.776-2.693,1.55-4.033,2.338a.512.512,0,0,1-.6.011q-7.559-4.38-15.129-8.74-1.673-.965-3.35-1.924c-.117-.066-.228-.175-.385-.105Z" transform="translate(0)"/><path class="b" d="M-1444.355,1386.93a.944.944,0,0,1,.381.162l35.831,20.655c.095.055.188.114.3.179-.075.152-.215.193-.328.258q-17.824,10.276-35.651,20.546a.982.982,0,0,1-.531.225Z" transform="translate(0 -56.288)"/><path class="c" d="M-1089.644,1382.549v-.438c0-3.235.006-6.471-.008-9.707,0-.349.087-.439.436-.438q17.75.015,35.5,0c.386,0,.453.113.451.467-.017,2-.008,4.006-.008,6.009v.4c.129.057.154-.033.187-.078a17.881,17.881,0,0,1,10.416-6.685,32.907,32.907,0,0,1,7.615-.886,30.069,30.069,0,0,1,8.6,1.032,18.538,18.538,0,0,1,12.54,11.281c.128.306.033.364-.23.443q-4.7,1.408-9.394,2.835c-1.017.307-2.037.606-3.049.928-.246.078-.357.057-.465-.2a7.654,7.654,0,0,0-7.012-4.845,10.844,10.844,0,0,0-3.836.269,2.968,2.968,0,0,0-2.292,1.943,2.683,2.683,0,0,0,1.392,3.362,16.9,16.9,0,0,0,4.23,1.323,114.831,114.831,0,0,1,12.1,3.1,13.689,13.689,0,0,1,9.446,9.769c1.521,5.678.444,10.892-3.759,15.215a20.9,20.9,0,0,1-9.461,5.442,31.735,31.735,0,0,1-7.621,1.144,34.115,34.115,0,0,1-10.892-1.178c-6.829-2-11.257-6.464-13.5-13.16-.111-.331-.193-.673-.319-1-.117-.3,0-.377.279-.426q6.942-1.245,13.88-2.508c.319-.058.485-.022.6.333a7.972,7.972,0,0,0,6.746,5.608,14.615,14.615,0,0,0,5.963-.15,4.806,4.806,0,0,0,1.172-.452,2.789,2.789,0,0,0,.339-4.683,8.106,8.106,0,0,0-3.051-1.342c-2.122-.573-4.3-.89-6.433-1.422a46.208,46.208,0,0,1-9.157-3.1c-4.915-2.4-7.36-6.42-7.8-11.769a15.212,15.212,0,0,1,.319-4.3c.052-.26.068-.368-.259-.366q-3.827.019-7.655,0c-.264,0-.358.079-.324.333a2.273,2.273,0,0,1,0,.294q0,18.952,0,37.9c0,.7.093.61-.589.61-4.64,0-9.281,0-13.922.012-.417,0-.5-.119-.5-.514q.017-19.057.018-38.113c0-.4-.063-.536-.51-.533-2.972.024-5.945.011-8.917.02-.122,0-.494-.167-.306.245a28.5,28.5,0,0,1,2.439,10.769,32.092,32.092,0,0,1-2.574,15.156,22.689,22.689,0,0,1-13.734,12.527,26.5,26.5,0,0,1-11,1.09,22.731,22.731,0,0,1-9.991-3.17,23.46,23.46,0,0,1-10.618-14.344,34.458,34.458,0,0,1-1.023-11.15,28.655,28.655,0,0,1,2.453-10.43,23.067,23.067,0,0,1,9.924-11.045,22.956,22.956,0,0,1,8.578-2.594,29.519,29.519,0,0,1,9.486.355,22.159,22.159,0,0,1,14.851,10.551c.055.089.113.177.169.266Zm-28.544,15.725a40.043,40.043,0,0,0,.263,4.827,17.645,17.645,0,0,0,1.515,5.684,5.982,5.982,0,0,0,5.251,3.743,6.071,6.071,0,0,0,5.4-2.222,7.974,7.974,0,0,0,1.374-2.758,32.833,32.833,0,0,0,1.071-8.008,47.642,47.642,0,0,0-.126-7.028,19.382,19.382,0,0,0-1.191-5.357,6.935,6.935,0,0,0-2.189-3.071,6.034,6.034,0,0,0-5.876-.8,6.413,6.413,0,0,0-3.631,3.6,21.673,21.673,0,0,0-1.755,7.773C-1118.187,1396.02-1118.181,1397.388-1118.188,1398.274Z" transform="translate(-200.745 -46.053)"/><path class="c" d="M-1399.613,1525.714c-.186.015-.309-.118-.45-.2q-21.9-12.627-43.791-25.259c-.117-.068-.232-.141-.39-.238.956-.554,1.872-1.087,2.79-1.617q8-4.61,15.987-9.228a.606.606,0,0,1,.709.019q12.569,7.26,25.145,14.508Q-1399.613,1514.707-1399.613,1525.714Z" transform="translate(-0.072 -122.62)"/><path class="d" d="M-1316.926,1525.578q0-11.007,0-22.014l25.494-14.706c1.049.611,2.1,1.226,3.147,1.833q3.373,1.952,6.749,3.9,2.921,1.687,5.843,3.373c1.112.639,2.233,1.267,3.349,1.9a25.374,25.374,0,0,1-2.506,1.5q-20.846,12.034-41.7,24.052C-1316.669,1525.482-1316.769,1525.6-1316.926,1525.578Z" transform="translate(-82.758 -122.485)"/><path class="e" d="M-1225.125,1424.887c-1.117-.633-2.237-1.261-3.35-1.9q-2.925-1.681-5.843-3.373-3.375-1.948-6.749-3.9c-1.051-.608-2.1-1.223-3.147-1.834q0-14.441,0-28.881c0-.182,0-.363,0-.545l5.271-3.032q3.435-1.978,6.869-3.956,3.125-1.8,6.244-3.612c.221-.129.516-.168.639-.443.152.117.089.285.089.429q0,25.334,0,50.668C-1225.106,1424.636-1225.119,1424.762-1225.125,1424.887Z" transform="translate(-129.978 -47.51)"/><path class="c" d="M-767.951,1426.706q0,9.728.008,19.454c0,.361-.075.462-.452.461q-7.465-.022-14.93,0c-.37,0-.493-.074-.493-.474q.018-19.454,0-38.908c0-.359.1-.43.441-.428q7.486.018,14.972,0c.351,0,.463.057.463.444Q-767.963,1416.979-767.951,1426.706Z" transform="translate(-428.987 -69.198)"/><path class="a" d="M-1356.339,1401.746c.01-.228-.195-.252-.329-.33q-6.725-3.885-13.453-7.765-3.491-2.014-6.98-4.032a.516.516,0,0,1-.285-.247c.522-.3,1.048-.611,1.576-.914l13.51-7.749q2.913-1.671,5.825-3.345a.493.493,0,0,1,.569,0q10.339,5.944,20.685,11.875c.111.063.284.072.295.257-.139-.028-.234.058-.344.121q-2.758,1.594-5.519,3.184-3.452,1.986-6.9,3.969-3.7,2.134-7.4,4.282a2.8,2.8,0,0,0-1.031.684l-.059.012Z" transform="translate(-43.493 -50.016)"/><path class="e" d="M-1316.737,1424.36a2.816,2.816,0,0,1,1.031-.684q3.691-2.157,7.4-4.282,3.451-1.988,6.9-3.969,2.761-1.589,5.518-3.184c.11-.064.205-.15.344-.121q0,4.053.007,8.106,0,8.127,0,16.254l-.029.1-.026,0q-.908-.521-1.816-1.044-4.423-2.56-8.845-5.122Q-1311.493,1427.385-1316.737,1424.36Z" transform="translate(-82.882 -72.645)"/><path class="c" d="M-1356.538,1447.084l.155,0c0,.2-.008.392-.008.588q0,11.893,0,23.786c-.9-.406-1.735-.948-2.593-1.438q-9.174-5.249-18.338-10.514c-.1-.056-.191-.114-.368-.22Z" transform="translate(-43.295 -95.354)"/><path class="d" d="M-1316.932,1471.434q0-11.893,0-23.786c0-.2.005-.392.008-.588l.059-.012q5.243,3.026,10.485,6.054,4.425,2.557,8.846,5.122.906.525,1.816,1.044c-1.012.675-2.09,1.237-3.142,1.841q-8.826,5.073-17.661,10.131A.944.944,0,0,1-1316.932,1471.434Z" transform="translate(-82.755 -95.332)"/><path class="e" d="M-783.792,1380.408c.329-.46.618-.867.91-1.271q1.94-2.69,3.879-5.382a.6.6,0,0,1,.54-.307q7.609.014,15.219.008c.081,0,.162.009.237.014.054.136-.046.2-.1.271q-2.324,3.216-4.649,6.432a.525.525,0,0,1-.475.265q-7.673-.012-15.346-.007C-783.618,1380.429-783.659,1380.421-783.792,1380.408Z" transform="translate(-429.003 -47.532)"/><path class="a" d="M-1256.338,1481.724l.029-.1Z" transform="translate(-122.108 -117.786)"/></g></svg>